<?xml version="1.0" standalone="no"?>
<!DOCTYPE svg PUBLIC "-//W3C//DTD SVG 20010904//EN"
 "http://www.w3.org/TR/2001/REC-SVG-20010904/DTD/svg10.dtd">
<svg version="1.0" xmlns="http://www.w3.org/2000/svg"
 width="300.000000pt" height="400.000000pt" viewBox="0 0 300.000000 400.000000"
 preserveAspectRatio="xMidYMid meet">
<metadata>
Created by potrace 1.10, written by Peter Selinger 2001-2011
</metadata>
<g transform="translate(0.000000,400.000000) scale(0.100000,-0.100000)"
fill="#000000" stroke="none">
<path d="M562 3958 c3 -39 6 -43 31 -46 31 -4 31 -3 15 49 -8 28 -17 39 -30
39 -16 0 -19 -6 -16 -42z"/>
<path d="M682 3948 c3 -47 5 -52 32 -59 28 -8 28 -8 22 32 -4 24 -2 39 4 39 5
0 10 9 10 20 0 11 -4 20 -10 20 -5 0 -10 -9 -10 -19 0 -11 -4 -23 -10 -26 -6
-4 -10 5 -10 19 0 17 -6 26 -16 26 -12 0 -14 -10 -12 -52z"/>
<path d="M960 3982 c0 -29 -26 -41 -85 -39 -40 1 -51 -3 -53 -16 -3 -15 0 -16
23 -7 28 11 95 14 95 5 0 -3 -10 -19 -22 -35 -21 -30 -21 -30 -2 -45 10 -8 24
-15 29 -15 6 0 11 -9 12 -19 2 -20 32 -61 45 -61 18 0 7 28 -13 33 -16 4 -20
12 -17 34 2 23 -1 29 -20 31 -27 4 -24 26 4 30 16 2 19 11 18 57 0 30 -4 58
-7 62 -4 3 -7 -3 -7 -15z"/>
<path d="M998 3988 c-5 -13 18 -78 27 -78 3 0 5 20 5 45 0 32 -4 45 -14 45 -8
0 -16 -6 -18 -12z"/>
<path d="M1157 3965 c-9 -19 -21 -35 -27 -35 -6 0 -15 -10 -20 -22 -6 -13 -15
-31 -22 -40 -7 -9 -9 -21 -5 -25 5 -4 12 -1 16 6 13 20 33 3 25 -21 -5 -15 -2
-19 12 -16 11 2 20 10 21 18 1 8 4 40 8 70 8 77 14 84 53 64 26 -12 32 -22 32
-46 0 -33 31 -68 61 -68 21 0 37 19 17 21 -7 1 -22 2 -33 3 -14 1 -20 8 -21
26 -2 81 -5 100 -14 100 -5 0 -10 -7 -10 -15 0 -8 -4 -15 -9 -15 -5 0 -14 7
-21 15 -21 25 -45 17 -63 -20z"/>
<path d="M1450 3976 c0 -30 -17 -37 -50 -21 -39 19 -90 34 -90 26 0 -4 5 -12
12 -19 9 -9 8 -12 -5 -12 -22 0 -22 -29 1 -36 9 -3 28 -12 42 -19 35 -19 133
-55 148 -55 6 0 12 7 12 15 0 18 26 10 60 -20 14 -12 37 -25 53 -29 15 -3 27
-11 27 -16 0 -6 9 -10 21 -10 11 0 41 -16 66 -35 25 -19 54 -35 64 -35 9 0 19
-3 21 -7 8 -20 81 -45 132 -47 54 -1 68 -8 45 -22 -13 -8 38 -44 63 -44 9 0
21 6 25 14 4 8 19 16 32 18 14 1 27 9 29 17 3 10 -1 12 -17 8 -12 -3 -34 1
-49 8 -34 16 -122 56 -187 85 -78 34 -105 40 -125 28 -24 -15 -50 -4 -43 20 5
19 -36 42 -181 99 -75 29 -80 29 -60 -2 l17 -26 -27 11 c-15 5 -36 15 -47 21
-20 10 -20 11 5 36 25 25 36 73 16 73 -5 0 -10 -11 -10 -24z"/>
<path d="M1510 3986 c0 -8 14 -30 30 -48 l30 -32 0 26 c0 15 7 33 15 42 20 20
19 26 -5 26 -11 0 -20 -6 -20 -14 0 -24 -21 -30 -27 -7 -6 24 -23 29 -23 7z"/>
<path d="M1670 3983 c0 -10 -2 -43 -5 -73 -7 -69 9 -39 20 38 5 35 3 52 -4 52
-6 0 -11 -8 -11 -17z"/>
<path d="M1766 3948 c-11 -96 -8 -114 19 -126 34 -16 32 -17 46 26 14 43 98
147 109 135 4 -4 2 -42 -6 -83 -7 -41 -13 -93 -13 -115 1 -36 1 -38 10 -15 13
35 37 202 31 218 -6 18 -33 15 -48 -5 -13 -17 -15 -17 -28 0 -18 23 -26 21
-26 -7 0 -13 -9 -35 -20 -49 -11 -14 -27 -42 -36 -62 -17 -43 -34 -38 -28 8 8
59 15 98 21 113 3 8 -1 14 -10 14 -10 0 -16 -16 -21 -52z"/>
<path d="M2068 3993 c21 -4 27 -15 22 -38 -10 -44 -39 -260 -35 -263 9 -9 23
46 40 156 10 62 21 115 26 117 8 6 108 -23 121 -34 3 -3 -1 -50 -11 -103 -10
-54 -14 -98 -10 -98 19 0 44 66 28 76 -5 3 -5 13 1 24 5 10 10 27 10 38 0 10
9 29 20 42 11 13 20 28 20 33 0 6 10 21 22 34 l21 23 -31 0 c-25 0 -32 -4 -32
-19 0 -26 -26 -46 -42 -33 -17 13 -150 52 -174 51 -15 -1 -14 -3 4 -6z"/>
<path d="M2380 3981 c0 -11 -4 -22 -9 -26 -5 -3 -21 -30 -35 -61 -24 -52 -46
-64 -46 -26 0 15 -2 15 -10 2 -15 -23 -12 -60 5 -66 11 -5 13 -16 8 -52 -4
-32 -3 -43 5 -38 6 4 14 23 17 44 6 39 43 122 59 134 5 3 21 1 35 -7 14 -7 41
-16 58 -20 18 -3 35 -10 38 -15 3 -5 -4 -35 -15 -67 -11 -31 -20 -71 -20 -88
0 -16 -7 -55 -15 -85 -17 -62 -18 -80 -7 -80 12 0 32 52 32 83 0 32 38 193 52
220 7 15 12 15 31 5 12 -7 28 -11 35 -10 6 2 12 -4 12 -13 0 -8 -5 -15 -10
-15 -6 0 -8 -10 -5 -23 4 -13 -1 -43 -9 -68 -9 -24 -16 -53 -16 -65 0 -11 -9
-47 -19 -80 -18 -53 -20 -76 -6 -62 12 12 45 114 45 140 0 15 4 29 9 32 4 3 6
17 3 31 -6 33 7 32 35 -2 17 -21 21 -23 16 -8 -3 11 -12 29 -20 40 -15 23 -17
71 -3 80 20 12 50 -15 50 -45 0 -17 4 -30 9 -30 4 0 6 11 4 24 -5 27 7 39 31
30 22 -8 20 -40 -3 -63 -10 -10 -22 -28 -26 -40 -3 -12 -11 -21 -16 -21 -5 0
-9 -10 -9 -22 -1 -26 -22 -58 -39 -58 -6 0 -11 -9 -11 -20 0 -25 -51 -110 -67
-110 -25 0 -129 52 -156 78 -22 21 -38 27 -82 28 -30 1 -52 -2 -49 -7 3 -5 12
-9 20 -9 8 0 14 -4 14 -9 0 -8 24 -17 65 -26 19 -5 85 -47 85 -55 0 -4 11 -11
25 -14 29 -7 32 -21 9 -34 -22 -12 -9 -32 21 -32 16 0 23 4 19 13 -3 8 4 24
14 37 19 23 20 23 45 7 22 -14 25 -15 21 -2 -10 26 64 165 88 165 11 0 10 -36
-1 -58 -5 -9 -20 -45 -34 -79 -24 -60 -25 -63 -6 -63 10 0 19 -7 19 -15 0 -8
6 -15 14 -15 24 0 28 18 6 30 -22 12 -17 30 18 71 9 11 19 34 22 52 4 23 10
32 23 31 20 -2 23 12 5 18 -8 3 -4 9 10 17 12 6 22 18 22 25 0 38 91 55 116
22 6 -9 16 -16 22 -16 6 0 15 -8 21 -17 9 -17 11 -16 30 4 12 12 21 32 21 45
-1 22 -1 22 -12 3 -16 -29 -16 -29 -32 -16 -20 17 -1 71 25 71 10 0 19 6 19
14 0 9 -7 12 -21 9 -11 -3 -31 0 -45 7 -13 8 -27 10 -31 7 -3 -4 -12 -2 -19 4
-11 9 -8 21 15 63 15 29 30 63 33 74 8 31 36 27 50 -5 l12 -28 4 33 c5 49 -22
67 -60 40 -27 -18 -28 -18 -28 -1 -1 16 -3 15 -19 -4 -29 -35 -44 -27 -19 10
13 17 26 34 31 35 4 2 7 8 7 13 0 6 -4 7 -10 4 -5 -3 -10 -1 -10 4 0 29 -21 3
-59 -71 -60 -119 -64 -123 -103 -112 -45 13 -47 41 -9 111 31 57 38 83 23 83
-5 0 -24 -38 -43 -85 -30 -77 -49 -99 -63 -77 -10 16 40 145 60 153 16 7 16 8
-7 8 -27 1 -29 -2 -59 -116 -13 -50 -30 -54 -59 -17 -15 20 -21 22 -21 10 0
-20 6 -20 -63 4 -31 11 -65 20 -76 20 -30 0 -35 19 -12 44 27 29 27 56 1 56
-13 0 -20 -7 -20 -19z m520 -118 c0 -18 -39 -76 -40 -59 0 16 -50 -37 -50 -53
0 -9 -9 -31 -20 -49 -11 -18 -20 -40 -20 -50 0 -24 -28 -62 -46 -62 -8 0 -14
9 -14 21 0 25 56 150 74 164 7 6 19 24 27 40 9 18 21 29 31 27 9 -1 22 7 28
18 13 25 30 26 30 3z m-30 -152 c0 -11 -39 -26 -47 -17 -4 3 -1 17 5 32 11 22
14 24 27 10 8 -8 15 -19 15 -25z m48 -13 c16 -16 15 -28 -1 -28 -7 0 -18 9
-25 20 -10 16 -10 20 1 20 7 0 18 -5 25 -12z"/>
<path d="M2490 3991 c0 -6 4 -13 10 -16 5 -3 17 -22 26 -41 9 -19 19 -33 21
-30 7 7 -37 96 -47 96 -6 0 -10 -4 -10 -9z"/>
<path d="M2770 3985 c-8 -10 -9 -19 -4 -25 5 -5 16 2 27 16 14 19 15 24 4 24
-8 0 -20 -7 -27 -15z"/>
<path d="M6 3972 c-12 -20 22 -39 73 -41 54 -1 74 -14 84 -52 6 -21 -21 -58
-31 -42 -8 12 -62 36 -68 30 -2 -2 14 -18 36 -36 33 -26 41 -29 46 -16 4 8 18
15 33 15 42 -1 107 15 94 23 -6 4 -24 2 -39 -3 -31 -12 -47 2 -40 35 6 28 -57
69 -96 61 -20 -4 -28 -1 -28 8 0 19 -54 34 -64 18z"/>
<path d="M295 3961 c-30 -7 -30 -7 -5 -14 13 -3 27 -2 30 2 3 5 16 11 30 14
l25 4 -25 0 c-14 1 -38 -2 -55 -6z"/>
<path d="M451 3908 c6 -62 3 -66 -63 -75 -95 -13 -86 -32 14 -30 46 0 96 -3
113 -8 28 -8 29 -7 12 9 -9 10 -17 21 -17 26 0 5 -7 7 -15 4 -11 -5 -15 1 -16
22 -1 16 -2 34 -4 39 -1 6 -3 16 -3 23 -3 22 -23 13 -21 -10z"/>
<path d="M572 3843 c2 -20 9 -29 25 -31 13 -2 30 -13 38 -25 14 -20 15 -21 15
-2 0 11 -7 28 -15 38 -7 11 -11 25 -8 33 4 10 -3 14 -27 14 -28 0 -31 -3 -28
-27z"/>
<path d="M697 3853 c-4 -3 -7 -15 -7 -25 0 -26 24 -17 28 10 3 21 -8 29 -21
15z"/>
<path d="M790 3822 c0 -22 6 -31 22 -35 30 -8 35 0 18 30 -22 38 -40 41 -40 5z"/>
<path d="M736 3805 c4 -17 2 -25 -7 -25 -14 -1 -69 -82 -69 -101 0 -5 15 -9
33 -9 31 0 33 2 33 35 0 19 7 42 15 51 16 15 14 74 -2 74 -5 0 -7 -11 -3 -25z"/>
<path d="M2990 3819 c0 -7 -8 -18 -17 -25 -21 -15 -13 -27 11 -18 14 5 24 54
11 54 -3 0 -5 -5 -5 -11z"/>
<path d="M1075 3810 c-3 -5 -17 -10 -31 -10 -13 0 -24 -5 -24 -11 0 -5 4 -8 9
-5 5 3 14 -1 21 -9 16 -19 40 -19 40 -1 0 8 3 21 6 30 7 17 -11 22 -21 6z"/>
<path d="M2120 3750 c0 -6 13 -19 30 -28 16 -9 34 -27 41 -39 6 -12 21 -24 33
-27 18 -6 15 -9 -24 -29 -90 -47 -100 -53 -89 -64 6 -6 4 -20 -6 -40 -20 -40
-16 -123 5 -123 11 0 15 14 16 58 2 84 7 101 39 128 31 27 45 30 63 12 9 -9
12 -9 12 1 0 8 6 11 16 7 9 -4 24 0 33 7 22 20 78 37 117 37 24 0 34 5 34 15
0 11 -12 15 -47 16 -27 0 -58 2 -69 5 -12 2 -27 -3 -34 -11 -16 -19 -30 -19
-30 -1 0 7 -8 20 -17 27 -10 8 -14 9 -10 2 4 -6 3 -14 -3 -18 -5 -3 -15 5 -22
19 -6 14 -18 26 -27 26 -9 0 -27 7 -39 16 -13 9 -22 11 -22 4z"/>
<path d="M40 3740 c-10 -7 5 -9 50 -9 48 1 58 3 40 9 -35 11 -72 11 -90 0z"/>
<path d="M750 3690 c-17 -11 -16 -12 37 -39 32 -16 52 -19 87 -15 25 4 46 11
46 16 0 6 -20 7 -48 3 -38 -5 -51 -3 -62 10 -21 25 -44 35 -60 25z"/>
<path d="M2869 3573 c-37 -28 -89 -55 -89 -47 0 4 -8 -1 -19 -10 -15 -14 -17
-24 -11 -52 14 -63 24 -57 20 14 -1 25 2 32 17 32 10 1 29 7 42 14 39 21 51
11 38 -32 -14 -48 -25 -62 -50 -62 -11 0 -18 -3 -15 -6 3 -3 24 -5 47 -6 43 0
63 -14 40 -29 -11 -6 -10 -14 4 -43 19 -41 27 -44 50 -18 18 19 12 35 -17 45
-16 6 -18 15 -14 56 3 27 14 62 27 79 19 27 20 34 9 52 -7 11 -18 18 -24 16
-6 -2 -16 0 -21 5 -6 6 -18 3 -34 -8z"/>
<path d="M2966 3484 c-11 -28 -7 -35 14 -24 23 12 27 40 6 40 -8 0 -17 -7 -20
-16z"/>
<path d="M2201 3444 c-25 -41 -25 -44 -8 -44 6 0 20 18 29 40 21 50 7 52 -21
4z"/>
<path d="M2334 3395 c-10 -55 1 -81 37 -89 41 -8 50 0 15 14 -19 7 -26 16 -25
32 7 75 -14 108 -27 43z"/>
<path d="M2278 3352 c-10 -26 -24 -56 -32 -67 -15 -20 -15 -20 -21 0 -14 44
-39 85 -52 85 -7 0 -13 -4 -13 -9 0 -5 -3 -17 -6 -26 -6 -15 -4 -15 14 -4 28
18 33 11 37 -56 4 -81 9 -82 61 -8 19 26 45 121 35 127 -4 3 -14 -16 -23 -42z"/>
<path d="M2741 3380 c-14 -13 -21 -26 -17 -36 5 -13 9 -14 20 -5 11 9 18 6 33
-16 11 -15 23 -37 27 -48 7 -19 8 -19 21 5 l14 25 1 -25 1 -25 14 25 c8 14 14
27 15 30 0 3 -25 16 -56 29 -43 19 -54 28 -51 43 3 10 4 18 4 18 -1 -1 -13
-10 -26 -20z"/>
<path d="M2576 3374 c-7 -18 0 -34 15 -34 5 0 9 11 9 25 0 28 -15 34 -24 9z"/>
<path d="M2513 3330 c-23 -57 -36 -97 -43 -135 -5 -22 -17 -73 -28 -112 -11
-40 -18 -73 -16 -73 2 0 -1 -11 -6 -24 -8 -22 -6 -25 21 -31 18 -4 27 -11 23
-18 -4 -8 -2 -7 7 1 10 10 11 17 2 30 -6 9 -17 16 -23 14 -17 -4 -7 44 19 99
11 23 18 45 16 49 -3 4 2 21 10 36 8 16 17 45 21 64 3 19 10 45 16 57 8 16 8
29 1 45 l-11 23 -9 -25z"/>
<path d="M2713 3313 c-31 -6 -29 -15 8 -35 36 -21 59 -24 41 -6 -7 7 -12 20
-12 30 0 10 -3 17 -7 17 -5 -1 -18 -4 -30 -6z"/>
<path d="M2596 3284 c-7 -18 1 -37 13 -29 5 2 11 14 14 25 6 24 -18 28 -27 4z"/>
<path d="M1850 3262 c1 -19 20 -34 35 -29 9 4 14 11 11 16 -7 11 -46 22 -46
13z"/>
<path d="M2567 3228 c-13 -79 -32 -135 -73 -210 -9 -17 -11 -28 -5 -28 6 0 17
15 25 33 19 45 54 73 101 81 39 6 149 46 162 60 12 12 33 6 33 -9 0 -8 5 -15
10 -15 6 0 8 11 4 28 -8 34 -13 39 -22 25 -4 -6 -21 -15 -37 -19 -17 -4 -50
-17 -75 -30 -46 -23 -66 -27 -109 -25 -20 1 -22 4 -13 13 7 7 12 19 12 27 0 8
7 22 15 31 12 13 13 23 6 44 -14 35 -28 33 -34 -6z"/>
<path d="M2928 3190 c14 -11 30 -16 40 -12 16 6 16 7 0 10 -10 2 -18 8 -18 13
0 5 -10 9 -22 9 l-23 -1 23 -19z"/>
<path d="M1220 3179 c-25 -4 -52 -5 -61 -3 -17 5 -75 -13 -68 -20 2 -3 32 -1
67 3 34 4 62 4 62 -1 0 -4 10 -8 23 -7 21 0 21 1 2 9 -16 7 -12 9 15 6 20 -1
41 -6 48 -10 7 -4 12 -4 12 1 0 4 4 3 8 -3 4 -5 32 -20 62 -32 59 -24 156 -90
146 -99 -3 -3 -12 0 -21 7 -9 7 -18 11 -20 8 -3 -3 11 -13 30 -23 19 -11 36
-25 37 -32 2 -9 8 -10 18 -3 12 8 1 23 -58 80 -40 38 -81 70 -90 70 -10 0 -36
9 -57 21 -52 28 -100 36 -155 28z"/>
<path d="M1033 3124 c-18 -9 -30 -20 -27 -25 3 -5 0 -9 -7 -9 -29 0 -117 -83
-159 -151 -25 -39 -56 -85 -70 -103 -49 -60 -81 -116 -67 -116 8 0 20 11 27
25 7 14 17 25 22 25 5 0 7 4 4 9 -3 5 1 11 9 15 8 3 15 9 15 14 0 5 34 44 76
86 42 42 74 80 70 83 -3 4 -6 1 -6 -5 0 -7 -4 -12 -8 -12 -4 0 -8 9 -8 19 0
11 3 18 7 16 3 -3 11 7 17 20 11 23 50 46 130 76 24 9 30 14 20 20 -9 6 -6 9
10 9 13 0 21 -3 19 -7 -3 -5 28 -8 68 -7 46 0 72 -3 68 -9 -3 -6 -1 -7 5 -4 5
4 33 2 61 -5 47 -11 59 -24 36 -40 -5 -4 2 -8 18 -8 15 0 27 -4 27 -10 0 -5 6
-10 14 -10 8 0 13 7 12 15 -3 19 -73 68 -85 60 -5 -3 -11 -1 -13 4 -1 5 -48
14 -103 20 -55 6 -111 13 -125 16 -14 3 -40 -2 -57 -11z m-174 -195 c-36 -39
-36 -26 1 19 14 17 26 28 28 23 2 -5 -11 -24 -29 -42z"/>
<path d="M2890 3083 c0 -23 9 -24 58 0 34 16 27 26 -18 24 -34 -1 -40 -4 -40
-24z"/>
<path d="M2824 3064 c3 -9 9 -27 12 -40 6 -25 19 -31 29 -14 3 6 -1 17 -9 26
-9 8 -16 22 -16 30 0 8 -5 14 -11 14 -6 0 -8 -7 -5 -16z"/>
<path d="M1118 3053 c-35 -5 -37 -23 -3 -23 14 0 25 5 25 11 0 5 5 7 12 3 7
-4 8 -3 4 4 -4 7 -8 11 -9 11 -1 -1 -14 -4 -29 -6z"/>
<path d="M1245 3050 c-46 -6 -45 -9 11 -15 12 -1 32 4 45 11 26 14 21 15 -56
4z"/>
<path d="M1020 3039 c-35 -8 -35 -8 8 -6 29 2 42 -1 42 -11 0 -7 4 -11 10 -7
12 7 1 35 -14 34 -6 -1 -27 -5 -46 -10z"/>
<path d="M1600 3044 c0 -16 35 -45 45 -37 4 5 5 2 1 -5 -5 -9 2 -24 19 -42 15
-15 27 -31 26 -34 -1 -3 1 -6 4 -6 3 0 7 0 11 0 3 0 -6 15 -19 33 -13 17 -27
40 -30 50 -4 9 -15 20 -24 24 -10 4 -21 11 -25 17 -6 8 -8 8 -8 0z"/>
<path d="M1446 3022 c20 -17 20 -20 5 -31 -14 -11 -14 -11 2 -7 10 3 15 2 12
-4 -3 -5 4 -14 16 -20 17 -10 20 -9 14 2 -3 7 1 4 9 -6 9 -11 16 -16 16 -10 0
5 11 -4 25 -21 13 -16 24 -24 25 -17 0 16 -93 108 -124 123 l-21 10 21 -19z"/>
<path d="M2646 2945 c-20 -31 -20 -34 4 -65 21 -27 27 -12 8 20 -10 16 -9 23
12 45 18 19 20 25 8 25 -9 0 -23 -11 -32 -25z"/>
<path d="M1627 2942 c3 -13 12 -26 20 -29 8 -3 18 -15 22 -26 6 -15 9 -16 12
-6 3 8 -10 30 -28 49 -28 30 -32 32 -26 12z"/>
<path d="M1309 2933 c20 -4 22 -7 10 -15 -10 -7 -6 -8 15 -3 23 5 27 3 23 -9
-7 -17 8 -22 17 -7 9 14 -19 32 -56 35 -18 2 -22 1 -9 -1z"/>
<path d="M1424 2928 c10 -7 31 -23 46 -35 15 -12 30 -20 34 -16 3 3 6 2 6 -4
0 -6 8 -14 17 -17 16 -6 16 -6 0 12 -21 23 -22 36 -2 28 8 -3 15 -1 15 4 0 5
-21 12 -47 16 -27 3 -57 11 -68 15 -19 9 -19 9 -1 -3z"/>
<path d="M2867 2927 c-16 -11 -16 -14 3 -52 l20 -39 0 52 c0 29 -1 52 -3 52
-2 0 -11 -6 -20 -13z"/>
<path d="M2410 2906 c0 -13 -7 -37 -15 -53 -16 -28 -24 -49 -56 -138 -21 -58
-23 -69 -9 -60 14 9 45 87 42 104 -2 7 5 23 16 35 11 11 23 31 27 44 3 12 10
22 15 22 5 0 7 6 4 14 -3 8 -1 17 5 20 14 9 2 36 -15 36 -8 0 -14 -10 -14 -24z"/>
<path d="M1422 2850 c-10 -17 -10 -20 3 -20 8 0 15 -5 15 -12 0 -9 3 -9 12 0
9 9 15 9 27 -1 9 -6 4 2 -9 20 -30 38 -32 39 -48 13z"/>
<path d="M2797 2854 c-14 -14 -7 -24 31 -41 20 -9 40 -19 45 -21 4 -2 7 1 7 7
0 7 -12 16 -27 22 -14 5 -31 17 -37 25 -7 8 -15 12 -19 8z"/>
<path d="M2976 2789 c-15 -29 -17 -42 -8 -51 14 -14 35 33 30 69 -3 19 -6 17
-22 -18z"/>
<path d="M1290 2783 c0 -6 8 -10 18 -10 32 0 42 -3 42 -12 0 -5 -10 -7 -22 -4
-13 3 -20 3 -17 0 3 -4 15 -8 27 -10 12 -2 35 -16 52 -32 l30 -29 -26 -28
c-15 -15 -31 -25 -35 -22 -5 3 -6 -2 -3 -10 4 -12 0 -16 -16 -16 -11 0 -19 -4
-16 -8 3 -5 -17 -10 -45 -11 -43 -1 -56 3 -92 33 -23 18 -53 37 -67 41 -14 4
-28 13 -32 19 -4 6 -6 1 -5 -11 0 -12 3 -20 5 -18 7 6 62 -24 62 -34 0 -14 91
-44 137 -45 38 -1 51 5 95 41 28 23 55 40 59 38 4 -3 10 2 13 11 4 12 2 15 -9
10 -9 -3 -15 0 -15 8 0 23 -79 96 -110 103 -17 3 -30 1 -30 -4z"/>
<path d="M1510 2788 c0 -4 10 -23 21 -43 19 -32 20 -49 1 -50 -4 -1 -17 -5
-30 -9 -27 -9 -25 -23 5 -43 20 -13 22 -13 20 5 0 12 -6 18 -14 15 -7 -3 -13
0 -13 6 0 6 10 11 23 11 13 0 28 5 34 11 17 17 11 -14 -6 -35 -10 -11 -10 -16
-2 -16 7 0 18 15 26 34 8 19 19 37 24 40 16 10 21 -23 5 -39 -9 -8 -11 -15 -6
-15 12 0 37 30 46 54 4 12 13 17 26 13 11 -3 23 -1 26 4 5 8 -9 13 -28 10 -4
0 -5 5 -2 13 3 8 0 17 -6 21 -6 4 -9 1 -8 -7 2 -7 -5 -12 -14 -12 -10 1 -15
-2 -12 -7 3 -5 -3 -9 -13 -9 -11 0 -23 -4 -28 -9 -12 -11 -34 3 -58 39 -9 13
-17 21 -17 18z"/>
<path d="M2424 2779 c-8 -14 11 -33 25 -25 11 7 4 36 -9 36 -5 0 -12 -5 -16
-11z"/>
<path d="M1750 2775 c0 -11 50 -53 51 -42 0 7 5 3 10 -8 8 -18 8 -18 6 5 -1
17 -8 25 -20 24 -9 -1 -17 2 -17 6 0 4 -7 10 -15 14 -8 3 -15 3 -15 1z"/>
<path d="M800 2744 c-49 -35 -60 -49 -25 -31 17 8 39 24 49 36 24 26 20 25
-24 -5z"/>
<path d="M1475 2763 c3 -3 -3 -12 -13 -19 -14 -10 -15 -15 -4 -25 8 -9 12 -10
12 -1 0 7 7 9 18 5 15 -6 16 -5 2 12 -8 10 -13 20 -12 22 2 3 1 7 -2 9 -3 2
-4 1 -1 -3z"/>
<path d="M1720 2712 c0 -10 3 -22 7 -26 4 -3 8 -16 10 -29 2 -12 7 -25 12 -30
5 -5 5 -23 1 -40 -3 -18 -3 -45 1 -60 4 -16 11 -66 15 -110 4 -45 10 -74 12
-65 2 9 12 20 23 23 20 7 27 25 9 25 -5 0 -10 -6 -10 -12 0 -9 -3 -8 -10 2 -5
9 -5 19 2 27 6 7 7 13 2 13 -5 0 6 13 24 29 17 17 32 35 32 41 0 6 -11 -2 -25
-17 l-26 -28 7 48 c4 33 3 47 -6 47 -7 0 -9 -8 -5 -22 6 -18 5 -21 -5 -11 -7
6 -14 30 -16 53 -2 33 1 40 14 38 10 -2 18 5 20 17 3 11 9 23 14 26 6 4 -8 15
-30 24 -22 10 -43 26 -45 37 -7 23 -27 24 -27 0z"/>
<path d="M2938 2715 c-3 -6 -8 -23 -12 -38 -4 -16 -23 -51 -42 -79 -42 -59
-56 -100 -45 -131 7 -18 10 -13 20 31 8 32 18 52 27 52 8 0 14 9 14 19 0 11 5
23 10 26 6 4 10 -11 10 -37 l0 -43 16 35 c27 60 33 75 35 90 3 21 -26 87 -33
75z"/>
<path d="M686 2673 c-3 -21 -9 -52 -12 -69 -3 -17 -1 -48 5 -70 11 -41 55
-103 65 -93 7 6 -13 59 -25 69 -3 3 -12 22 -18 42 -10 30 -9 45 2 80 11 32 12
45 4 50 -8 5 -6 8 5 8 9 0 20 5 23 10 3 6 -4 10 -18 10 -20 0 -25 -6 -31 -37z"/>
<path d="M2299 2630 c-1 -5 -2 -13 -3 -17 -1 -5 -6 -24 -10 -43 -5 -19 -14
-46 -21 -60 -7 -14 -25 -65 -40 -115 -15 -49 -36 -109 -46 -132 -11 -24 -19
-50 -19 -58 0 -18 -26 -20 -37 -2 -10 15 -103 48 -103 36 0 -5 -6 -6 -13 -3
-7 2 -28 -9 -47 -26 -27 -25 -36 -28 -38 -16 -4 18 -18 21 -27 7 -3 -5 2 -16
10 -24 8 -9 18 -32 23 -52 4 -20 10 -35 13 -33 3 2 14 -4 24 -12 17 -14 18
-13 10 5 -24 59 -11 110 34 134 15 8 30 2 77 -31 33 -23 83 -63 113 -90 30
-26 69 -54 88 -63 18 -9 33 -19 33 -23 0 -4 14 -16 31 -26 37 -22 99 -76 234
-204 90 -85 100 -92 103 -71 4 25 -39 69 -68 69 -8 0 -23 17 -32 37 -15 33
-16 39 -3 53 8 9 18 31 21 49 6 27 10 32 28 27 57 -17 79 -19 72 -8 -4 7 -16
12 -26 12 -10 0 -26 8 -36 17 -15 16 -17 16 -31 -3 -41 -56 -73 -81 -98 -77
-16 4 -25 12 -25 24 0 28 27 89 39 89 6 0 11 7 11 16 0 13 -3 14 -13 5 -8 -6
-17 -8 -20 -4 -4 3 -7 -3 -7 -14 0 -27 -41 -65 -59 -54 -8 5 -11 16 -8 25 7
18 -4 21 -19 6 -7 -7 -18 -2 -34 15 -20 22 -21 25 -6 19 14 -5 17 -4 12 5 -5
7 -15 10 -23 7 -9 -4 -23 4 -35 19 -10 13 -35 32 -54 41 -20 9 -42 28 -51 40
-8 13 -24 24 -34 24 -11 0 -19 3 -19 6 0 19 34 105 46 115 8 6 14 24 14 40 0
15 4 30 8 33 5 3 15 31 22 63 7 32 17 63 21 68 3 6 10 25 14 43 4 18 13 45 20
58 13 26 10 64 -6 64 -5 0 -10 -4 -10 -10z"/>
<path d="M1046 2612 c-4 -4 -24 -7 -43 -7 -20 0 -38 -6 -40 -12 -3 -7 0 -13 7
-13 6 0 8 5 5 10 -4 7 3 9 19 6 30 -5 85 8 69 17 -5 3 -13 3 -17 -1z"/>
<path d="M1083 2553 c-8 -3 -13 -23 -13 -49 0 -48 -11 -55 -43 -26 -11 9 -17
11 -13 5 4 -8 2 -13 -5 -13 -21 0 3 -18 33 -25 23 -6 28 -2 41 27 12 25 22 93
13 87 0 0 -7 -3 -13 -6z"/>
<path d="M2520 2552 c0 -4 20 -12 45 -18 36 -8 43 -8 33 1 -15 15 -78 28 -78
17z"/>
<path d="M801 2522 c0 -12 -8 -34 -17 -48 -15 -22 -15 -35 -6 -102 9 -64 8
-78 -3 -85 -11 -6 -12 -14 -5 -33 6 -14 7 -36 4 -50 -3 -13 -1 -45 4 -71 6
-27 13 -82 16 -123 4 -41 9 -110 12 -153 l7 -77 -32 6 c-19 4 -31 2 -31 -4 0
-6 -8 -13 -18 -16 -9 -3 -35 -23 -57 -45 -30 -29 -44 -37 -56 -30 -20 10 -91
0 -83 -12 3 -5 -2 -12 -11 -15 -10 -4 -13 -13 -10 -25 4 -13 1 -19 -9 -19 -9
0 -16 5 -16 10 0 20 -66 11 -88 -12 -40 -42 -59 -58 -69 -58 -5 0 -22 -11 -37
-25 -15 -14 -33 -25 -41 -25 -7 0 -25 -13 -38 -30 -27 -31 -46 -37 -63 -20
-11 11 -53 -35 -67 -72 -3 -10 -16 -18 -27 -18 -12 0 -20 -7 -20 -16 0 -11 -6
-15 -20 -11 -18 4 -20 0 -20 -35 l0 -40 25 30 c13 16 38 32 55 36 31 6 34 9
44 59 6 25 10 27 55 27 42 0 48 3 44 18 -5 21 60 62 100 62 40 0 57 10 57 34
0 12 7 32 16 44 15 22 21 23 80 17 63 -7 64 -7 64 17 0 13 6 33 14 43 12 16
19 18 52 9 25 -6 38 -15 36 -24 -1 -8 12 3 30 25 55 67 76 85 107 91 16 4 33
14 36 23 5 12 15 -1 38 -45 145 -279 315 -467 458 -505 41 -11 53 -10 95 6 99
37 215 200 200 280 -4 19 -3 35 2 35 5 0 15 12 23 28 8 15 29 46 46 70 18 24
47 72 65 108 33 66 57 81 77 47 6 -12 23 -18 48 -19 21 0 52 -6 68 -12 17 -6
70 -19 119 -29 70 -13 95 -23 120 -46 17 -16 49 -37 71 -48 22 -10 50 -26 63
-35 12 -9 22 -12 22 -7 0 16 -40 63 -54 63 -23 0 -46 36 -46 73 0 20 -4 37
-10 37 -5 0 -10 -10 -10 -21 0 -18 -5 -20 -27 -16 -30 5 -95 29 -103 37 -3 3
-21 6 -40 7 -64 2 -113 11 -119 21 -6 9 -90 27 -101 21 -3 -1 -15 3 -27 9 -18
10 -21 17 -14 35 5 12 9 25 9 30 10 99 16 125 28 120 20 -8 17 10 -5 29 -18
16 -19 14 -25 -30 -3 -26 -6 -54 -6 -62 -3 -37 -26 -116 -37 -128 -7 -7 -13
-20 -13 -28 0 -8 -4 -14 -9 -14 -5 0 -12 -15 -15 -34 -4 -19 -10 -36 -14 -38
-4 -2 -17 -21 -29 -43 -13 -22 -28 -38 -35 -36 -7 2 -22 5 -33 8 -16 3 -16 2
3 -6 23 -11 29 -26 13 -36 -5 -3 -13 0 -17 6 -5 8 -3 9 6 4 9 -5 11 -4 6 4
-12 19 -27 2 -20 -25 4 -17 1 -26 -10 -30 -9 -3 -13 -10 -10 -15 3 -5 -2 -6
-10 -3 -10 4 -16 1 -16 -9 0 -46 -104 -103 -136 -76 -10 8 -14 8 -14 1 0 -6 8
-15 18 -21 16 -9 15 -10 -3 -10 -11 0 -38 -2 -60 -5 -23 -2 -43 1 -47 8 -5 7
-11 8 -15 1 -13 -17 -33 -16 -33 1 0 14 -3 14 -15 4 -13 -11 -14 -8 -9 19 4
19 2 31 -4 31 -5 0 -8 -9 -5 -20 4 -14 0 -20 -11 -20 -10 0 -15 -4 -12 -8 3
-5 -1 -9 -9 -9 -8 0 -15 6 -15 13 0 6 -7 15 -16 18 -8 3 -12 2 -9 -4 3 -6 1
-10 -4 -10 -14 0 -14 13 -1 26 6 6 6 15 0 24 -8 13 -10 12 -10 -2 0 -10 -4
-18 -10 -18 -5 0 -10 6 -10 13 0 7 -9 20 -20 30 -12 10 -18 23 -14 29 5 8 2 9
-9 5 -18 -7 -24 8 -7 18 13 8 13 25 0 25 -17 0 -24 -51 -9 -61 11 -7 11 -9 -3
-9 -9 0 -27 17 -39 38 -13 20 -34 47 -47 59 -16 15 -19 23 -10 26 9 4 7 6 -4
6 -9 1 -22 15 -30 31 -7 17 -16 30 -20 30 -5 0 -8 6 -8 13 0 7 -11 28 -24 47
-25 37 -25 40 -51 225 -12 89 -15 162 -11 283 3 89 7 166 8 170 2 4 1 25 -3
47 -3 22 -7 30 -8 17z m285 -1050 c13 -7 24 -16 24 -21 0 -12 78 -47 130 -59
45 -10 96 -6 105 8 3 4 21 4 41 0 29 -7 45 -3 90 20 30 16 70 46 89 67 24 26
35 33 35 22 0 -41 -116 -219 -143 -219 -6 0 -18 -7 -27 -15 -10 -9 -30 -19
-47 -24 -41 -12 -137 19 -164 53 -11 14 -26 26 -33 26 -23 0 -226 219 -226
244 0 4 23 -14 51 -41 28 -26 61 -54 75 -61z"/>
<path d="M2780 2481 c-8 -10 -22 -29 -30 -43 -8 -14 -30 -47 -47 -73 -60 -90
-27 -75 36 15 14 19 31 39 38 43 7 5 11 12 8 17 -3 5 2 21 11 35 18 28 7 33
-16 6z"/>
<path d="M1633 2472 c23 -25 21 -29 -12 -28 -16 1 -27 4 -25 8 6 10 -93 -1
-131 -14 -43 -15 -95 -41 -95 -49 0 -11 45 -19 48 -9 2 5 10 6 18 3 8 -3 22
-2 32 2 19 9 32 12 81 20 19 3 41 11 49 17 13 11 14 10 7 -2 -7 -12 -6 -13 6
-3 8 6 30 13 49 15 l35 3 -27 28 c-30 30 -62 39 -35 9z"/>
<path d="M910 2430 c-6 -11 -7 -20 -3 -21 84 -7 124 -12 153 -18 19 -5 53 -10
75 -10 22 -1 49 -3 59 -4 13 -1 23 8 33 31 7 19 9 31 3 27 -5 -3 -10 -12 -10
-19 0 -16 -30 -17 -49 -3 -7 6 -19 12 -26 13 -7 1 -23 5 -35 9 -16 5 -20 4
-15 -5 4 -7 1 -16 -6 -21 -21 -13 -29 -11 -22 8 5 13 3 15 -13 9 -34 -14 -98
-20 -91 -9 4 6 0 14 -9 17 -8 3 -12 2 -9 -4 3 -6 -1 -10 -9 -10 -10 0 -13 6
-10 15 9 22 -4 18 -16 -5z"/>
<path d="M2800 2390 c5 -10 7 -25 4 -33 -6 -18 22 -31 32 -15 4 7 2 14 -4 16
-7 2 -12 12 -12 22 0 10 -7 20 -15 24 -13 4 -13 2 -5 -14z"/>
<path d="M250 2373 c0 -5 21 -9 48 -11 34 -1 43 1 32 8 -18 11 -80 13 -80 3z"/>
<path d="M2040 2367 c0 -7 7 -22 15 -33 14 -18 14 -18 13 8 -2 27 -28 50 -28
25z"/>
<path d="M2373 2343 c-9 -15 -13 -16 -24 -5 -18 17 -46 15 -53 -4 -9 -23 -9
-23 28 -17 19 3 36 1 40 -6 11 -17 26 -13 26 7 0 10 5 23 12 30 9 9 9 12 -3
12 -8 0 -19 -8 -26 -17z"/>
<path d="M1120 2339 c11 -7 5 -8 -21 -4 -46 8 -141 -9 -176 -32 l-27 -18 24
-3 c14 -2 37 -15 52 -29 17 -17 42 -27 72 -30 45 -6 106 11 106 28 0 12 -6 11
-42 -7 -37 -19 -88 -13 -123 14 -24 19 -24 19 -4 38 19 17 20 17 35 -4 20 -30
84 -32 84 -3 0 14 -5 18 -20 14 -11 -3 -20 0 -20 6 0 16 63 14 86 -4 17 -13
17 -14 2 -15 -10 0 -18 -4 -18 -9 0 -5 9 -7 21 -4 30 8 66 -15 73 -48 3 -16
10 -29 16 -29 19 0 -11 54 -48 87 -20 18 -41 33 -46 33 -5 0 -7 2 -4 5 10 10
69 -17 79 -37 6 -11 13 -17 16 -15 14 15 -23 48 -69 62 -60 18 -68 18 -48 4z"/>
<path d="M1433 2343 c-46 -6 -49 -28 -4 -27 20 1 43 4 51 8 10 4 19 -2 25 -16
14 -31 60 -36 75 -9 9 18 8 21 -12 21 -13 0 -30 5 -38 10 -10 7 -1 8 30 4 25
-3 51 -11 59 -17 15 -13 71 -19 71 -8 0 3 -10 13 -22 21 -23 14 -169 23 -235
13z"/>
<path d="M2740 2295 c-7 -8 -18 -15 -24 -15 -7 0 -25 -13 -41 -30 -16 -16 -34
-30 -40 -30 -13 0 -38 -42 -54 -92 -7 -20 -19 -42 -27 -48 -7 -7 -14 -20 -14
-29 0 -20 43 31 61 72 7 17 17 26 25 23 9 -4 14 2 14 17 0 26 48 76 99 104 33
18 42 34 23 41 -5 1 -15 -4 -22 -13z"/>
<path d="M1484 2255 c25 -19 96 -19 122 -1 17 13 14 13 -28 5 -32 -7 -53 -7
-67 0 -30 16 -50 13 -27 -4z"/>
<path d="M2272 2235 c-17 -36 -15 -53 2 -35 18 19 30 60 18 60 -5 0 -14 -11
-20 -25z"/>
<path d="M443 2235 c-3 -9 -3 -19 1 -22 8 -9 37 18 30 28 -8 14 -24 11 -31 -6z"/>
<path d="M1795 2239 c-9 -14 3 -79 15 -79 16 0 22 21 10 35 -9 11 -10 19 -1
28 11 13 6 27 -10 27 -4 0 -11 -5 -14 -11z"/>
<path d="M2706 2175 c-9 -34 2 -51 18 -29 10 13 17 14 34 5 14 -8 22 -8 22 -1
0 5 -5 10 -12 10 -6 0 -22 9 -34 21 l-22 20 -6 -26z"/>
<path d="M1224 2155 c-11 -22 -10 -24 7 -22 22 4 38 17 20 17 -8 0 -11 7 -7
15 9 25 -8 17 -20 -10z"/>
<path d="M2245 2172 c-13 -13 -2 -20 34 -24 29 -2 37 0 30 8 -11 13 -56 24
-64 16z"/>
<path d="M2895 2161 c-3 -5 -2 -12 3 -15 13 -8 53 5 46 15 -7 12 -41 12 -49 0z"/>
<path d="M1809 2144 c0 -5 -2 -21 -4 -36 -2 -19 1 -28 10 -28 11 0 13 8 8 33
-6 33 -12 47 -14 31z"/>
<path d="M2078 2128 c-46 -24 -48 -35 -8 -34 16 1 30 6 30 13 0 6 9 15 20 18
11 4 18 11 15 16 -8 12 -12 11 -57 -13z"/>
<path d="M1181 2075 c-25 -54 -26 -64 -3 -91 22 -27 57 -41 48 -19 -8 23 13
18 57 -12 32 -22 40 -24 48 -12 19 31 6 52 -19 27 -9 -9 -18 -6 -37 12 -22 21
-29 23 -55 13 -52 -20 -68 23 -25 73 25 29 33 54 16 54 -5 0 -18 -20 -30 -45z"/>
<path d="M2787 2113 c-8 -7 38 -33 59 -33 23 0 16 16 -11 28 -30 14 -39 15
-48 5z"/>
<path d="M2464 2095 c25 -19 36 -19 36 0 0 10 -10 15 -27 15 -27 -1 -27 -1 -9
-15z"/>
<path d="M1974 2048 c-4 -5 -2 -13 4 -17 5 -3 11 -15 13 -26 3 -11 12 -21 22
-23 12 -3 15 1 10 14 -5 13 -3 15 7 9 7 -5 5 4 -6 18 -22 31 -41 40 -50 25z"/>
<path d="M2666 2038 c13 -45 21 -53 28 -30 5 14 2 28 -8 37 -21 21 -28 19 -20
-7z"/>
<path d="M2072 2028 c26 -46 50 -62 41 -28 -3 11 -9 20 -14 20 -5 0 -9 7 -9
15 0 8 -7 15 -15 15 -13 0 -13 -4 -3 -22z"/>
<path d="M2860 2014 c0 -3 16 -26 35 -51 19 -25 35 -39 35 -30 0 24 -40 87
-56 87 -8 0 -14 -3 -14 -6z"/>
<path d="M1381 1996 c-9 -11 -6 -15 19 -18 27 -4 60 6 50 15 -15 13 -59 15
-69 3z"/>
<path d="M2793 1966 c4 -10 1 -16 -7 -16 -9 0 -12 -9 -8 -25 4 -24 6 -25 22
-10 9 8 25 13 34 9 33 -13 14 26 -23 46 -21 11 -23 10 -18 -4z"/>
<path d="M1421 1922 c0 -7 -5 -10 -11 -7 -13 8 -13 -15 0 -35 8 -12 10 -12 15
2 4 9 5 25 2 35 -3 10 -5 12 -6 5z"/>
<path d="M2285 1911 c-6 -11 51 -71 67 -71 14 0 8 11 -26 46 -20 21 -37 31
-41 25z"/>
<path d="M1225 1899 c4 -5 -2 -9 -12 -9 -19 -1 -69 -37 -61 -45 3 -3 18 1 34
10 16 8 39 15 51 15 21 0 40 16 30 26 -9 9 -47 13 -42 3z"/>
<path d="M1531 1873 c-1 -7 -10 -13 -21 -13 -11 0 -20 -5 -20 -11 0 -5 4 -8 9
-5 4 3 16 -3 26 -14 20 -22 47 -20 -243 -26 -130 -2 -150 -7 -132 -30 9 -10
15 -11 20 -4 5 8 30 8 88 1 48 -6 92 -7 109 -1 48 15 123 21 123 9 0 -7 6 -7
17 0 13 7 23 5 37 -7 18 -16 18 -16 7 6 -10 19 -9 22 9 22 25 0 25 10 2 36
-11 11 -22 26 -25 34 -3 10 -6 11 -6 3z"/>
<path d="M1093 1835 c-30 -31 -30 -65 -2 -65 15 0 19 5 15 15 -3 9 3 19 14 25
22 12 28 50 8 49 -7 0 -23 -11 -35 -24z"/>
<path d="M2690 1787 c0 -12 34 -47 45 -47 12 0 3 22 -15 40 -23 23 -30 25 -30
7z"/>
<path d="M2860 1784 c0 -9 103 -104 112 -104 15 0 -4 28 -28 40 -13 7 -24 19
-24 26 0 6 -11 19 -25 28 -26 17 -35 20 -35 10z"/>
<path d="M1196 1725 c-2 -7 11 -19 30 -28 19 -9 34 -13 34 -7 0 5 18 8 40 8
23 0 44 2 47 6 4 3 -5 6 -18 6 -14 0 -48 6 -76 13 -40 11 -53 11 -57 2z"/>
<path d="M2840 1700 c0 -21 4 -30 13 -27 6 2 12 14 12 27 0 13 -6 25 -12 28
-9 2 -13 -7 -13 -28z"/>
<path d="M739 1673 c-13 -21 -27 -39 -31 -41 -15 -6 -8 -21 6 -16 10 4 20 -5
29 -28 14 -31 52 -85 45 -63 -13 42 -33 85 -40 85 -4 0 -1 21 7 47 8 26 13 49
11 51 -2 1 -14 -14 -27 -35z"/>
<path d="M2710 1700 c-12 -7 -11 -13 10 -34 13 -15 27 -26 32 -26 4 0 23 -17
43 -37 31 -35 34 -36 35 -15 0 12 -4 22 -10 22 -5 0 -13 15 -18 33 -5 17 -15
33 -23 33 -8 1 -22 2 -31 3 -9 0 -18 8 -20 16 -2 10 -7 12 -18 5z"/>
<path d="M1049 1673 c0 -5 -2 -20 -4 -35 -2 -16 1 -28 6 -28 5 0 9 6 10 13 0
6 2 22 3 35 2 12 -1 22 -6 22 -4 0 -8 -3 -9 -7z"/>
<path d="M1744 1648 c3 -18 9 -56 13 -85 6 -51 5 -53 -19 -53 -34 0 -58 -30
-58 -71 0 -30 11 -44 93 -122 50 -48 128 -119 173 -157 89 -76 198 -182 349
-342 106 -112 151 -145 243 -180 l57 -22 -84 -38 c-133 -62 -193 -61 -225 4
-6 13 -22 24 -34 26 -12 2 -23 6 -23 10 -2 9 -8 47 -13 87 -2 17 -5 48 -7 70
-1 25 -3 31 -6 17 -2 -12 -7 -20 -11 -18 -10 6 -2 -127 8 -139 22 -27 -11
-254 -60 -420 -21 -72 -43 -149 -48 -172 -10 -42 -9 -43 15 -43 23 0 25 3 20
30 -4 20 -2 32 8 37 7 4 13 15 13 23 -3 39 3 60 17 60 11 0 12 5 5 25 -7 17
-6 25 1 25 6 0 9 7 5 15 -3 8 4 35 15 60 11 25 19 53 18 63 -3 31 1 43 11 37
6 -3 10 -1 10 4 0 6 -5 11 -11 11 -11 0 -2 43 11 48 5 2 4 17 -1 35 -5 19 -5
35 1 41 5 5 6 22 3 37 -4 22 -2 29 11 29 8 0 18 -11 22 -25 3 -14 10 -22 16
-19 14 9 40 -17 29 -30 -6 -7 -3 -16 6 -25 13 -12 14 -11 9 6 -10 30 22 39 34
10 5 -12 9 -16 9 -9 1 6 8 12 16 12 8 0 23 4 33 9 9 6 41 17 70 26 28 9 52 21
52 26 0 6 4 8 8 5 13 -8 54 34 48 47 -3 7 -9 20 -12 30 -4 9 -11 17 -16 17
-34 0 -142 69 -197 124 -33 35 -61 66 -61 70 0 3 -35 41 -77 84 -110 110 -153
158 -153 170 0 6 -6 9 -14 6 -8 -3 -19 3 -26 15 -6 12 -9 21 -6 21 3 0 -14 20
-37 43 -23 24 -45 42 -49 40 -4 -2 -10 2 -13 8 -4 5 -13 8 -20 5 -7 -2 -18 6
-25 19 -7 14 -16 22 -20 20 -4 -3 -15 6 -24 20 -9 14 -23 25 -30 25 -16 0 -30
27 -27 52 2 14 -3 17 -26 12 -25 -5 -31 -1 -45 29 -16 33 -16 36 3 53 10 9 19
13 19 8 0 -5 5 -2 10 6 8 13 11 12 24 -5 9 -11 16 -26 16 -32 0 -7 3 -12 8
-12 19 3 34 -3 64 -28 46 -39 67 -49 116 -58 60 -10 153 -91 222 -193 30 -45
61 -81 68 -82 6 0 12 2 12 5 0 2 -27 42 -60 87 -55 78 -111 133 -187 187 -18
12 -33 30 -33 40 0 25 48 71 74 71 11 0 61 -27 110 -60 73 -49 97 -60 130 -60
30 0 37 3 26 10 -8 5 -25 10 -36 10 -25 0 -171 97 -190 126 -27 40 50 118 94
96 22 -11 72 -8 72 4 0 13 -58 32 -98 33 -26 1 -42 -7 -69 -34 -31 -31 -35
-40 -31 -75 3 -30 0 -39 -9 -35 -7 2 -27 2 -44 -2 -30 -6 -54 -38 -68 -91 l-6
-23 -45 32 c-142 102 -141 101 -139 144 0 22 -4 55 -10 73 -5 18 -7 40 -4 48
3 8 0 14 -7 14 -9 0 -11 -10 -6 -32z"/>
<path d="M1282 1628 c2 -5 8 -10 13 -10 6 -1 24 -4 41 -8 24 -6 33 -3 42 11
11 17 7 18 -44 18 -31 -1 -54 -5 -52 -11z"/>
<path d="M576 1605 c-3 -8 -1 -15 4 -15 6 0 10 -9 10 -19 0 -11 6 -23 13 -27
6 -4 9 -4 5 1 -4 4 -4 13 1 19 10 13 -4 56 -18 56 -5 0 -11 -7 -15 -15z"/>
<path d="M2409 1580 c-10 -7 -7 -11 14 -19 34 -13 37 -13 37 -3 0 14 -37 30
-51 22z"/>
<path d="M430 1544 c0 -13 62 -66 68 -59 4 4 -1 12 -11 19 -9 7 -17 21 -17 30
0 9 -8 16 -20 16 -11 0 -20 -3 -20 -6z"/>
<path d="M633 1540 c-13 -5 -23 -12 -23 -16 0 -3 7 -4 15 0 8 3 15 1 15 -3 0
-5 -6 -12 -12 -14 -8 -4 -7 -6 3 -6 10 -1 19 9 21 24 3 14 5 25 4 24 0 0 -11
-4 -23 -9z"/>
<path d="M2836 1513 c4 -10 12 -31 19 -48 7 -16 20 -48 29 -70 34 -82 41 -95
51 -92 14 5 13 32 -2 30 -7 -2 -11 9 -11 27 1 20 -7 36 -23 49 -21 18 -23 22
-11 42 12 19 11 24 -18 50 -36 34 -41 35 -34 12z"/>
<path d="M531 1451 c1 -11 60 -53 66 -47 4 3 0 6 -8 6 -9 0 -10 3 -3 8 7 4 -2
13 -22 23 -19 9 -34 14 -33 10z"/>
<path d="M2920 1286 c0 -4 8 -21 17 -39 13 -24 18 -28 21 -15 2 10 -6 27 -17
40 -12 12 -21 18 -21 14z"/>
<path d="M1721 1239 c-7 -23 -10 -44 -7 -47 8 -7 16 2 20 24 3 11 7 26 11 35
3 10 2 20 -3 23 -5 3 -15 -13 -21 -35z"/>
<path d="M2005 1261 c-3 -5 -1 -12 5 -16 6 -4 8 -11 5 -16 -4 -5 -2 -9 4 -9
15 0 22 16 15 34 -7 18 -20 21 -29 7z"/>
<path d="M720 1225 c15 -40 31 -67 36 -62 7 7 -22 73 -35 81 -8 5 -8 0 -1 -19z"/>
<path d="M2965 1200 c-4 -12 0 -31 8 -43 8 -13 17 -32 20 -42 4 -11 4 -2 1 20
-3 22 -5 50 -5 63 -1 28 -15 29 -24 2z"/>
<path d="M1490 1130 c0 -7 29 -18 47 -18 3 0 9 -5 12 -11 4 -5 12 -7 18 -3 7
5 -6 14 -33 24 -24 8 -44 12 -44 8z"/>
<path d="M981 1053 c4 -16 12 -41 16 -58 6 -27 7 -28 11 -7 4 26 -16 92 -28
92 -5 0 -4 -12 1 -27z"/>
<path d="M2205 1052 c31 -27 87 -62 101 -62 9 0 -18 25 -68 63 -48 35 -72 35
-33 -1z"/>
<path d="M525 983 c12 -36 19 -42 33 -29 3 3 0 6 -6 6 -6 0 -13 14 -17 30 -4
17 -10 30 -15 30 -4 0 -2 -17 5 -37z"/>
<path d="M162 978 c15 -13 55 -45 88 -73 33 -27 84 -80 113 -117 49 -63 80
-90 58 -50 -34 60 -187 209 -253 245 l-33 19 27 -24z"/>
<path d="M2090 961 c0 -5 -3 -16 -6 -24 -4 -10 2 -14 20 -14 21 0 24 2 16 18
-12 22 -30 34 -30 20z"/>
<path d="M2090 900 c0 -8 31 -30 43 -30 3 0 3 9 0 20 -5 20 -43 29 -43 10z"/>
<path d="M80 791 c64 -52 80 -62 80 -53 0 6 -24 24 -52 42 -29 17 -42 22 -28
11z"/>
<path d="M484 683 c7 -21 19 -57 25 -80 8 -30 17 -43 29 -43 12 0 13 3 5 8 -7
4 -20 40 -30 80 -10 41 -23 72 -30 72 -10 0 -10 -8 1 -37z"/>
<path d="M2290 695 c-19 -14 -28 -25 -21 -25 14 0 81 38 81 46 0 11 -28 1 -60
-21z"/>
<path d="M2090 656 c-6 -8 -10 -23 -9 -33 2 -10 -1 -28 -5 -41 -4 -13 -3 -28
2 -35 10 -12 12 -18 12 -37 0 -5 5 -10 11 -10 6 0 8 8 4 19 -3 12 -1 21 7 24
7 2 5 3 -4 2 -26 -4 -30 9 -13 48 8 19 11 37 8 40 -3 4 0 13 7 22 7 8 8 15 2
15 -5 0 -15 -6 -22 -14z"/>
<path d="M471 615 c-7 -68 -5 -143 2 -136 4 4 6 43 4 87 -1 43 -4 66 -6 49z"/>
<path d="M977 598 c9 -27 21 -48 25 -48 10 0 -12 62 -29 80 -10 11 -9 3 4 -32z"/>
<path d="M2628 546 c-22 -38 -24 -45 -11 -50 11 -4 12 -10 5 -19 -12 -14 -6
-104 9 -144 6 -15 10 -30 10 -33 0 -3 9 -19 20 -36 13 -22 19 -52 21 -108 1
-49 6 -80 15 -87 7 -6 10 -16 7 -21 -3 -5 2 -18 12 -29 18 -20 40 -27 29 -8
-15 24 -34 128 -35 187 0 51 -5 70 -24 95 -45 61 -59 155 -35 241 l11 38 38
-37 c22 -21 37 -42 34 -47 -8 -13 5 -28 21 -22 11 5 12 10 2 26 -16 27 -84 98
-94 98 -5 0 -20 -20 -35 -44z"/>
<path d="M519 523 c-6 -41 -4 -162 2 -178 6 -16 8 -14 8 12 1 17 7 34 14 36 9
4 9 6 -1 6 -9 1 -10 18 -6 66 4 44 3 65 -5 65 -6 0 -11 -3 -12 -7z"/>
<path d="M292 495 c15 -14 33 -25 40 -25 15 0 -42 49 -57 50 -5 0 2 -11 17
-25z"/>
<path d="M2670 471 c0 -74 40 -161 90 -196 73 -51 176 -78 224 -59 34 13 13
22 -43 18 -131 -9 -228 74 -247 211 -10 75 -23 90 -24 26z"/>
<path d="M2960 468 c19 -13 37 -20 39 -15 5 13 -10 25 -44 33 l-30 7 35 -25z"/>
<path d="M0 335 c0 -9 8 -18 18 -22 17 -6 86 -39 123 -58 11 -5 19 -12 19 -16
0 -3 20 -27 45 -52 36 -38 45 -43 45 -28 0 43 -112 137 -207 174 -38 15 -43
15 -43 2z"/>
<path d="M510 312 c0 -6 6 -13 13 -15 7 -3 4 -6 -7 -6 -16 -1 -16 -3 -5 -17 7
-8 13 -38 13 -65 1 -27 4 -49 9 -49 4 0 7 -19 8 -42 0 -24 5 -52 10 -63 6 -13
7 5 3 55 -11 149 -19 203 -31 208 -7 2 -13 -1 -13 -6z"/>
<path d="M412 290 c-6 -14 -20 -38 -31 -55 -12 -16 -21 -38 -21 -48 0 -26 -34
-17 -38 10 -2 15 7 29 27 44 34 25 41 49 14 44 -10 -1 -17 -9 -15 -19 2 -9 -4
-16 -11 -16 -15 0 -30 -31 -41 -83 -4 -17 -16 -31 -31 -37 -19 -7 -25 -17 -25
-40 0 -16 -4 -30 -8 -30 -4 0 -13 -14 -19 -31 -11 -28 -10 -30 10 -27 12 2 22
10 23 18 0 8 5 28 12 43 7 16 12 31 12 35 0 11 47 30 58 23 5 -3 12 -16 16
-28 4 -13 14 -23 22 -23 8 0 14 -4 14 -10 0 -5 9 -10 20 -10 13 0 22 -9 26
-25 10 -39 34 -31 34 10 0 25 -4 35 -15 35 -9 0 -29 7 -45 15 -25 13 -30 22
-30 52 0 35 34 121 53 134 5 4 7 15 5 25 -4 17 -6 16 -16 -6z"/>
<path d="M2348 235 c4 -25 13 -31 25 -19 8 8 -10 44 -22 44 -5 0 -6 -11 -3
-25z"/>
<path d="M2810 170 c13 -11 28 -20 34 -21 6 0 30 -2 54 -5 27 -4 42 -2 42 5 0
6 -14 11 -30 11 -17 0 -47 7 -67 15 -49 21 -60 19 -33 -5z"/>
<path d="M2950 151 c0 -12 29 -23 41 -15 18 10 9 24 -16 24 -14 0 -25 -4 -25
-9z"/>
<path d="M2650 25 c0 -14 6 -25 14 -25 9 0 12 8 8 25 -6 32 -22 32 -22 0z"/>
</g>
</svg>
